<?xml version="1.0" standalone="no"?>
<!DOCTYPE svg PUBLIC "-//W3C//DTD SVG 20010904//EN"
 "http://www.w3.org/TR/2001/REC-SVG-20010904/DTD/svg10.dtd">
<svg version="1.0" xmlns="http://www.w3.org/2000/svg"
 width="16.000000pt" height="16.000000pt" viewBox="0 0 16.000000 16.000000"
 preserveAspectRatio="xMidYMid meet">
<metadata>
Created by potrace 1.11, written by Peter Selinger 2001-2013
</metadata>
<g transform="translate(0.000000,16.000000) scale(0.002778,-0.002778)"
fill="#000000" stroke="none">
<path d="M4770 5421 c-88 -28 -123 -56 -337 -270 -202 -201 -231 -236 -227
-278 1 -13 2 -31 3 -40 2 -27 910 -931 946 -942 37 -12 63 -10 95 8 14 8 118
108 232 222 178 179 211 217 239 276 28 58 33 80 35 153 2 71 -2 96 -24 155
-26 68 -36 79 -307 353 -276 278 -341 334 -420 361 -61 22 -171 22 -235 2z"/>
<path d="M387 4804 c-1 -1 -22 -5 -46 -9 -150 -22 -294 -150 -329 -291 -4 -16
-7 -895 -7 -1954 0 -1874 1 -1926 19 -1965 19 -41 23 -48 25 -63 2 -17 107
-121 146 -144 102 -62 -51 -58 2059 -55 1839 2 1923 3 1961 20 22 10 47 23 55
28 8 5 25 13 36 18 41 18 134 139 149 194 2 4 3 8 5 10 5 7 12 48 16 102 2 33
6 65 9 72 2 7 1 15 -4 17 -4 3 -5 26 -1 51 4 25 4 45 0 45 -4 0 -4 20 0 45 4
24 4 49 0 55 -4 7 -4 26 -1 43 4 18 4 49 0 70 -3 20 -2 40 2 43 5 3 7 9 4 14
-4 7 -6 71 -4 130 0 8 0 38 0 65 0 28 0 57 0 65 0 8 0 31 0 50 -1 19 -1 42 0
50 1 25 0 154 -1 175 -1 11 -1 27 -1 35 0 8 0 38 0 65 0 28 0 57 0 65 0 8 0
47 0 85 0 39 0 79 1 90 4 93 4 135 0 135 -3 0 -4 30 -2 67 7 153 0 198 -34
234 -31 32 -85 43 -128 25 -36 -15 -454 -430 -467 -463 -7 -19 -12 -113 -9
-168 1 -11 1 -27 1 -35 0 -8 0 -42 0 -75 0 -33 0 -67 0 -75 0 -8 0 -33 0 -55
0 -22 0 -49 -1 -60 -2 -27 -2 -32 -1 -95 0 -30 0 -62 0 -70 0 -8 0 -33 0 -55
0 -22 0 -47 0 -55 0 -8 0 -37 0 -65 0 -27 0 -57 0 -65 0 -8 0 -31 0 -50 1 -19
0 -57 -1 -85 l-3 -50 -115 -2 c-218 -5 -332 -5 -336 -1 -2 3 -26 2 -54 -2 -27
-4 -50 -2 -50 2 0 5 -4 7 -8 4 -5 -3 -40 -5 -78 -5 -38 -1 -85 -1 -104 -2 -19
-1 -42 -1 -50 0 -8 1 -28 1 -45 0 -16 -1 -34 -1 -40 0 -5 0 -80 0 -165 0 -193
1 -321 2 -329 3 -3 0 -8 0 -11 -1 -13 -5 -130 -5 -130 -1 0 6 -109 4 -116 -2
-2 -3 -24 -2 -49 2 -24 4 -50 3 -57 -1 -6 -4 -16 -5 -20 -3 -7 5 -227 6 -501
3 -60 0 -110 1 -113 3 -2 3 -26 2 -54 -2 -27 -4 -50 -2 -50 2 0 5 -4 7 -8 4
-5 -3 -40 -5 -78 -5 -38 -1 -85 -1 -104 -2 -19 -1 -42 -1 -50 0 -8 1 -28 1
-45 0 -16 -1 -37 -1 -45 0 -8 0 -85 0 -170 0 -198 0 -200 0 -211 6 -5 3 -8 37
-8 75 1 38 -2 73 -5 79 -4 5 -2 12 4 16 6 4 8 10 5 15 -4 7 -6 71 -4 130 0 8
0 38 0 65 0 28 0 57 0 65 0 8 0 31 0 50 -1 19 -1 42 0 50 0 15 0 126 -1 165 0
11 0 36 1 55 0 19 0 40 0 45 0 31 -2 475 -2 520 0 6 0 89 0 185 1 96 1 200 2
230 0 30 0 62 0 70 -1 8 -1 33 0 55 1 22 1 47 0 55 -1 8 0 38 0 65 1 28 1 57
0 65 -1 8 -1 31 0 50 1 19 1 42 0 50 0 8 0 40 0 70 1 30 1 62 0 70 -1 8 -1 33
0 55 1 22 1 47 0 55 -1 8 0 38 0 65 1 28 1 57 0 65 -1 8 -1 31 0 50 1 19 1 42
0 50 0 8 0 40 0 70 1 30 1 61 0 68 0 14 -1 133 -1 295 0 113 1 118 23 126 12
5 31 5 41 1 11 -4 36 -4 57 0 21 4 43 4 49 0 7 -4 27 -4 46 0 18 4 35 6 38 3
4 -4 67 -4 331 -2 6 0 73 0 150 -1 77 0 189 0 248 1 60 0 110 -1 113 -3 2 -3
26 -2 54 2 27 4 50 2 50 -2 0 -5 4 -7 8 -4 5 3 40 5 78 5 38 1 85 1 104 2 19
1 42 1 50 0 8 -1 29 -1 45 0 17 1 37 1 45 0 14 0 237 -1 405 -1 44 0 106 0
138 0 31 -1 61 2 66 5 5 3 12 1 16 -5 4 -6 10 -8 16 -5 5 3 41 6 80 6 39 0 81
4 93 9 29 11 456 439 467 468 15 39 2 94 -30 126 -33 32 -59 37 -206 35 -90
-1 -84 -1 -145 0 -25 0 -52 0 -60 0 -8 0 -28 0 -45 1 -16 0 -60 -1 -98 -2 -37
-2 -67 -1 -67 2 0 4 -56 4 -135 -1 -11 0 -63 0 -115 1 -52 1 -97 1 -100 0 -17
-4 -130 -4 -130 0 0 6 -109 4 -116 -2 -2 -3 -24 -2 -49 2 -24 4 -50 3 -57 -1
-6 -4 -16 -5 -20 -3 -7 5 -227 6 -501 3 -60 0 -110 1 -113 3 -2 3 -26 2 -54
-2 -27 -4 -50 -2 -50 2 0 5 -4 7 -8 4 -5 -3 -40 -5 -78 -5 -38 -1 -85 -1 -104
-2 -19 -1 -42 -1 -50 0 -8 1 -28 1 -45 0 -16 -1 -34 -1 -40 0 -5 0 -80 0 -165
0 -277 1 -323 2 -331 7 -4 2 -10 1 -13 -4 -2 -4 -34 -5 -71 -2 -36 3 -67 5
-68 4z"/>
<path d="M3883 4589 c-17 -6 -2038 -2017 -2080 -2069 -9 -12 -74 -312 -107
-495 -3 -16 -8 -41 -11 -55 -3 -14 -8 -36 -11 -50 -2 -14 -7 -36 -10 -50 -3
-14 -8 -36 -10 -50 -2 -14 -7 -36 -10 -50 -3 -14 -8 -36 -10 -50 -5 -31 -12
-66 -21 -105 -13 -58 -7 -159 11 -195 22 -43 75 -100 93 -100 7 0 13 -4 13 -9
0 -28 134 -34 240 -10 47 10 105 21 130 25 25 3 49 8 53 11 5 3 23 7 40 9 33
4 72 11 72 14 0 1 11 3 25 5 14 2 84 15 155 30 72 15 141 29 155 31 14 2 36 7
50 10 14 3 39 8 55 11 17 3 35 6 40 8 6 1 28 5 49 10 35 7 151 120 1077 1046
714 714 1039 1046 1041 1062 1 24 1 54 -1 76 -1 20 -901 920 -931 933 -36 14
-72 17 -97 7z"/>
</g>
</svg>
